<?xml version="1.0" encoding="utf-8"?>
<!-- Svg Vector Icons : http://www.onlinewebfonts.com/icon -->
<!DOCTYPE svg PUBLIC "-//W3C//DTD SVG 1.1//EN" "http://www.w3.org/Graphics/SVG/1.1/DTD/svg11.dtd">
<svg version="1.1" xmlns="http://www.w3.org/2000/svg" xmlns:xlink="http://www.w3.org/1999/xlink" x="0px" y="0px" viewBox="0 0 1000 1000" enable-background="new 0 0 1000 1000" xml:space="preserve">
<metadata> Svg Vector Icons : http://www.onlinewebfonts.com/icon </metadata>
<g><path d="M828,450.7L521.9,180.7c-14.3-12.6-37.4-12.6-51.4,0l-306,270.1c-14.3,12.6-10.5,22.8,8.6,22.8h94.4V750c0,15.1,12.4,27.6,27.5,27.6h115.5V595.7c0-15.1,12.4-27.6,27.5-27.6h116.7c15.2,0,27.5,12.2,27.5,27.6v181.9h115.5c15.2,0,27.5-12.4,27.5-27.6V473.4h94.4C838.3,473.4,842.1,463.3,828,450.7z"/><path d="M500,990C229.8,990,10,770.2,10,500C10,229.8,229.8,10,500,10c270.2,0,490,219.8,490,490C990,770.2,770.2,990,500,990z M501.3,86.8c-229.9,0-417,187.1-417,417.1c0,230,187.1,417.1,417,417.1c230,0,417.1-187.1,417.1-417.1C918.3,273.9,731.3,86.8,501.3,86.8z"/></g>
</svg>